<svg width="20" height="20" viewBox="0 0 20 20" fill="none" xmlns="http://www.w3.org/2000/svg">
<path fill-rule="evenodd" clip-rule="evenodd" d="M10 1.89551C14.4755 1.89573 18.1035 5.52541 18.1035 10.001C18.103 14.4761 14.4752 18.1043 10 18.1045C5.52477 18.1043 1.89599 14.4761 1.89551 10.001C1.89551 5.5254 5.52447 1.89571 10 1.89551ZM9.37988 3.16504C5.87978 3.47872 3.13574 6.41929 3.13574 10.001C3.1362 13.5822 5.88012 16.5203 9.37988 16.834V14.3164C7.26553 14.015 5.6378 12.1972 5.6377 10C5.63782 7.80275 7.26551 5.98412 9.37988 5.68262V3.16504ZM10.6201 16.834C14.12 16.5205 16.8628 13.5823 16.8633 10.001C16.8633 6.41918 14.1203 3.47857 10.6201 3.16504V16.834ZM9.37988 6.93945C7.95346 7.22734 6.87805 8.48924 6.87793 10C6.87803 11.5107 7.95355 12.7716 9.37988 13.0596V6.93945Z" fill="#333B46"/>
</svg>
