<svg width="20" height="20" viewBox="0 0 20 20" fill="none" xmlns="http://www.w3.org/2000/svg">
<path d="M10 16.7275C10.5178 16.7276 10.9441 17.1216 10.9951 17.626L11 17.7275V17.79L10.9951 17.8926C10.9439 18.3967 10.5177 18.79 10 18.79C9.44775 18.79 9 18.3423 9 17.79V17.7275C9.00018 17.1754 9.44787 16.7276 10 16.7275Z" fill="#333B46"/>
<path d="M3.83203 14.7539C4.22253 14.3635 4.85558 14.3635 5.24609 14.7539C5.63654 15.1444 5.63654 15.7775 5.24609 16.168L5.14551 16.2695L5.06934 16.3379C4.67658 16.6584 4.09665 16.6356 3.73047 16.2695C3.34014 15.8791 3.34033 15.246 3.73047 14.8555L3.83203 14.7539Z" fill="#333B46"/>
<path d="M14.7539 14.7539C15.12 14.3879 15.699 14.3652 16.0918 14.6855L16.168 14.7539L16.2695 14.8555L16.3379 14.9307C16.6584 15.3234 16.6357 15.9033 16.2695 16.2695C15.9033 16.6357 15.3234 16.6584 14.9307 16.3379L14.8555 16.2695L14.7539 16.168L14.6855 16.0918C14.3652 15.699 14.3878 15.12 14.7539 14.7539Z" fill="#333B46"/>
<path fill-rule="evenodd" clip-rule="evenodd" d="M10 4.60254C12.9808 4.60258 15.3975 7.0192 15.3975 10C15.3974 12.9808 12.9808 15.3974 10 15.3975C7.01926 15.3974 4.60258 12.9807 4.60254 10C4.60254 7.01922 7.01923 4.60261 10 4.60254ZM10 5.84277C7.70406 5.84284 5.84277 7.70405 5.84277 10C5.84282 12.2959 7.70409 14.1572 10 14.1572C12.2959 14.1572 14.1572 12.2959 14.1572 10C14.1572 7.70403 12.296 5.84282 10 5.84277Z" fill="#333B46"/>
<path d="M2.375 9.00488C2.87896 9.05635 3.27242 9.48246 3.27246 10C3.27246 10.5176 2.87898 10.9436 2.375 10.9951L2.27246 11H2.20996C1.65768 11 1.20996 10.5523 1.20996 10C1.21 9.44775 1.6577 9 2.20996 9H2.27246L2.375 9.00488Z" fill="#333B46"/>
<path d="M17.8926 9.00488C18.3967 9.05619 18.79 9.48234 18.79 10C18.79 10.5177 18.3967 10.9438 17.8926 10.9951L17.79 11H17.7275C17.1754 10.9998 16.7275 10.5522 16.7275 10C16.7276 9.44787 17.1754 9.00018 17.7275 9H17.79L17.8926 9.00488Z" fill="#333B46"/>
<path d="M14.9307 3.66211C15.3234 3.34167 15.9034 3.36439 16.2695 3.73047C16.66 4.12098 16.66 4.755 16.2695 5.14551L16.168 5.24609C15.7775 5.6366 15.1444 5.63656 14.7539 5.24609C14.3635 4.85556 14.3634 4.22253 14.7539 3.83203L14.8555 3.73047L14.9307 3.66211Z" fill="#333B46"/>
<path d="M3.73047 3.73047C4.09662 3.36438 4.67658 3.34168 5.06934 3.66211L5.14551 3.73047L5.24609 3.83203L5.31543 3.9082C5.63544 4.30095 5.61203 4.88009 5.24609 5.24609C4.8801 5.61209 4.30097 5.63544 3.9082 5.31543L3.83203 5.24609L3.73047 5.14551L3.66211 5.06934C3.34166 4.67656 3.36432 4.09662 3.73047 3.73047Z" fill="#333B46"/>
<path d="M10 1.20996C10.5176 1.21002 10.9438 1.60334 10.9951 2.10742L11 2.20996V2.27246L10.9951 2.375C10.9437 2.879 10.5176 3.2724 10 3.27246C9.44781 3.27242 9.0001 2.82464 9 2.27246V2.20996C9 1.6577 9.44775 1.21 10 1.20996Z" fill="#333B46"/>
</svg>
