<svg width="20" height="20" viewBox="0 0 20 20" fill="none" xmlns="http://www.w3.org/2000/svg">
<path fill-rule="evenodd" clip-rule="evenodd" d="M7.39717 2.44552C7.88748 2.23779 8.55854 2.11534 9.02509 2.55392C9.51064 3.01067 9.38855 3.69712 9.17451 4.18869C8.89884 4.81888 8.73113 5.50351 8.69795 6.22384L8.69209 6.53537V6.53732L8.70088 6.82638C8.86684 9.79934 11.3819 12.2882 14.4411 12.4133L14.7878 12.4182C15.0161 12.4152 15.2398 12.3995 15.4597 12.3723L15.7868 12.3225C16.0821 12.2688 16.3753 12.2595 16.6413 12.3215C16.913 12.3849 17.1904 12.5342 17.363 12.8166C17.5344 13.0976 17.5419 13.4108 17.4782 13.6789C17.4153 13.9432 17.2774 14.2008 17.1003 14.4406C15.6192 16.4659 13.185 17.7708 10.4538 17.7385L10.1882 17.7317C6.15822 17.5544 2.78458 14.3308 2.50556 10.342L2.50654 10.341C2.25241 6.80665 4.35003 3.73064 7.39717 2.44552ZM8.10127 3.51291C8.04389 3.5259 7.97056 3.54898 7.88056 3.58712H7.87861C5.36932 4.64557 3.63885 7.12169 3.72822 9.97677L3.74287 10.2541V10.2561L3.77217 10.5676C4.15528 13.7685 6.93314 16.3468 10.2429 16.4924C12.657 16.5971 14.8097 15.4724 16.1003 13.7063L16.1022 13.7033L16.1755 13.5969C16.1928 13.5691 16.2064 13.5428 16.2185 13.5197C16.1633 13.5214 16.0933 13.5275 16.0075 13.5432H16.0056C15.6148 13.6131 15.2153 13.653 14.8044 13.6584L14.3903 13.6526C10.5857 13.4969 7.46867 10.3201 7.45283 6.5422C7.44553 5.52817 7.65602 4.5666 8.03779 3.69357L8.08271 3.58029C8.09094 3.55599 8.09596 3.53299 8.10127 3.51291Z" fill="#333B46"/>
</svg>
