<svg width="24" height="24" viewBox="0 0 24 24" fill="none" xmlns="http://www.w3.org/2000/svg">
<path d="M3.21896 12.5308L10.719 20.0308C10.7886 20.1005 10.8714 20.1558 10.9624 20.1935C11.0535 20.2312 11.151 20.2506 11.2496 20.2506C11.3481 20.2506 11.4457 20.2312 11.5368 20.1935C11.6278 20.1558 11.7105 20.1005 11.7802 20.0308C11.8499 19.9611 11.9052 19.8784 11.9429 19.7873C11.9806 19.6963 12 19.5987 12 19.5002C12 19.4016 11.9806 19.304 11.9429 19.213C11.9052 19.122 11.8499 19.0392 11.7802 18.9695L4.80989 12.0002L11.7802 5.0308C11.9209 4.89007 12 4.6992 12 4.50017C12 4.30115 11.9209 4.11028 11.7802 3.96955C11.6395 3.82882 11.4486 3.74976 11.2496 3.74976C11.0506 3.74976 10.8597 3.82882 10.719 3.96955L3.21896 11.4695C3.14922 11.5392 3.09391 11.6219 3.05616 11.713C3.01842 11.804 2.99899 11.9016 2.99899 12.0002C2.99899 12.0987 3.01842 12.1963 3.05616 12.2874C3.09391 12.3784 3.14922 12.4611 3.21896 12.5308Z" fill="#333B46" stroke="#333B46" stroke-width="0.36"/>
</svg>
